<?xml version="1.0" encoding="utf-8"?>
<!-- Generator: Adobe Illustrator 26.0.1, SVG Export Plug-In . SVG Version: 6.00 Build 0)  -->
<svg version="1.1" id="Capa_1" xmlns="http://www.w3.org/2000/svg" xmlns:xlink="http://www.w3.org/1999/xlink" x="0px" y="0px"
	 viewBox="0 0 493.5 323.1" style="enable-background:new 0 0 493.5 323.1;" xml:space="preserve">
<path d="M444.6,0H48.9C22,0,0,22,0,48.9v225.2c0,27,22,48.9,48.9,48.9h395.6c27,0,48.9-22,48.9-48.9V48.9C493.5,22,471.5,0,444.6,0z
	 M460.9,48.9v225.2c0,2.6-0.7,4.9-1.8,7.1L343.7,165.9L460.8,48.8C460.8,48.8,460.9,48.9,460.9,48.9z M32.6,274.1V48.9
	c0-0.1,0-0.1,0-0.2l117.1,117.1L34.4,281.2C33.4,279,32.6,276.7,32.6,274.1z M251.8,211.7c-2.7,2.7-7.4,2.7-10.1,0L62.7,32.6h368.2
	L251.8,211.7z M172.8,188.9l45.8,45.8c7.5,7.5,17.5,11.6,28.1,11.6c10.6,0,20.6-4.1,28.1-11.6l45.8-45.8l101.5,101.5H71.3
	L172.8,188.9z"/>
</svg>
